<svg width="78" height="81" viewBox="0 0 78 81" fill="none" xmlns="http://www.w3.org/2000/svg">
<path d="M64.0156 35.594H14.031C12.2766 35.594 10.8494 34.1765 10.8494 32.4337V22.9656C10.8494 21.2229 12.2766 19.8047 14.031 19.8047H64.0149C65.7687 19.8047 67.1953 21.2229 67.1953 22.9656V32.4344C67.1959 34.1765 65.7693 35.594 64.0156 35.594ZM14.031 22.2268C13.6276 22.2268 13.2869 22.5653 13.2869 22.9656V32.4344C13.2869 32.8413 13.6208 33.1725 14.031 33.1725H64.0149C64.4244 33.1725 64.7578 32.8413 64.7578 32.4344V22.9656C64.7578 22.5647 64.4171 22.2268 64.0149 22.2268H14.031Z" fill="white"/>
<path d="M57.0447 68.0302H20.999C17.6218 68.0302 14.8741 65.3004 14.8741 61.9439V34.3829C14.8741 33.7144 15.4201 33.1719 16.0929 33.1719C16.7656 33.1719 17.3116 33.7144 17.3116 34.3829V61.9439C17.3116 63.9646 18.9661 65.608 20.999 65.608H57.0447C59.077 65.608 60.7308 63.9646 60.7308 61.9439V34.3829C60.7308 33.7144 61.2768 33.1719 61.9496 33.1719C62.6223 33.1719 63.1683 33.7144 63.1683 34.3829V61.9439C63.1683 65.3004 60.4213 68.0302 57.0447 68.0302Z" fill="white"/>
<path d="M39.0225 68.0302C38.3498 68.0302 37.8038 67.4882 37.8038 66.8191V34.3829C37.8038 33.7144 38.3498 33.1719 39.0225 33.1719C39.6953 33.1719 40.2413 33.7144 40.2413 34.3829V66.8185C40.2413 67.4882 39.6959 68.0302 39.0225 68.0302Z" fill="white"/>
<path d="M23.8113 22.2227C19.9966 20.1687 18.5731 15.4141 20.6383 11.6228C22.7022 7.83335 27.4864 6.41821 31.303 8.46856C37.117 11.598 40.2565 20.3286 40.3869 20.6986L38.0877 21.5021C38.0585 21.4198 35.1256 13.2808 30.1433 10.5988C27.5078 9.18309 24.2062 10.1604 22.7821 12.7757C21.3567 15.3935 22.339 18.6755 24.9734 20.093L23.8113 22.2227Z" fill="white"/>
<path d="M54.2313 22.2227L53.071 20.0924C54.3477 19.4051 55.2782 18.2661 55.6926 16.8849C56.1063 15.5031 55.9534 14.0437 55.2617 12.7763C54.5719 11.5077 53.4263 10.5837 52.0363 10.1725C50.6457 9.76136 49.1783 9.91275 47.9023 10.5988C42.9201 13.2801 39.9871 21.4191 39.9579 21.5015L37.6587 20.698C37.7891 20.328 40.928 11.5973 46.7421 8.46854C48.5897 7.47425 50.7182 7.25505 52.7316 7.85089C54.7468 8.44614 56.4061 9.78619 57.4061 11.6228C58.4073 13.4588 58.6285 15.5727 58.0289 17.5752C57.4287 19.5771 56.0801 21.2272 54.2313 22.2227Z" fill="white"/>
<path d="M61.9496 51.8128H16.0929C15.4201 51.8128 14.8741 51.2702 14.8741 50.6017C14.8741 49.9332 15.4201 49.3906 16.0929 49.3906H61.9496C62.6223 49.3906 63.1683 49.9332 63.1683 50.6017C63.1683 51.2702 62.6229 51.8128 61.9496 51.8128Z" fill="white"/>
</svg>
